<svg width="345" height="184" viewBox="0 0 345 184" fill="none" xmlns="http://www.w3.org/2000/svg">
<path d="M88 5H123.5L40.4323 180H5.5L88 5Z" fill="white" stroke="white"/>
<path d="M124 145.5L107 180H71L105 109L124 145.5Z" fill="white" stroke="white"/>
<path d="M138 40L120 76L171.5 181.5L190 145.5L138 40Z" fill="white" stroke="white"/>
<path d="M186 76.5L204.5 112.5L257 4H221L186 76.5Z" fill="white"/>
<path d="M219 146L238 110L272 180H236L219 146Z" fill="white"/>
<path d="M271 40L253 76L302.5 180H338L271 40Z" fill="white"/>
<path d="M186 76.5L204.5 112.5L257 4H221L186 76.5Z" stroke="white"/>
<path d="M219 146L238 110L272 180H236L219 146Z" stroke="white"/>
<path d="M271 40L253 76L302.5 180H338L271 40Z" stroke="white"/>
</svg>
